# xmcd
#
# Track frame offsets: 
#        150
#        16072
#        40487
#        56968
#        74957
#        94168
#        109313
#        118226
#        135985
#        154823
#        170177
#        182697
#
# Disc length: 2699 seconds
#
# Revision: 0
# Processed by: cddbd v1.5.2PL0 Copyright (c) Steve Scherf et al.
# Submitted via: ExactAudioCopy v1.2
#
DISCID=b50a890c
DTITLE=Robert Randolph and the Family Band - Got Soul
DYEAR=2017
DGENRE=Blues
TTITLE0=Got Soul
TTITLE1=She Got Soul
TTITLE2=Love Do What It Do
TTITLE3=Shake It
TTITLE4=I Thank You
TTITLE5=Be the Change
TTITLE6=Heaven's Calling
TTITLE7=Find a Way
TTITLE8=I Want It
TTITLE9=Travelin' Cheeba Man
TTITLE10=Lovesick
TTITLE11=Gonna Be All Right
EXTD=
EXTT0=
EXTT1=
EXTT2=
EXTT3=
EXTT4=
EXTT5=
EXTT6=
EXTT7=
EXTT8=
EXTT9=
EXTT10=
EXTT11=
PLAYORDER=
